<svg width="1296" height="536" viewBox="0 0 1296 536" fill="none" xmlns="http://www.w3.org/2000/svg">
<g filter="url(#filter0_f_1_1714)">
<rect width="1440" height="480" transform="translate(96 -40)" fill="white" fill-opacity="0.01"/>
<g filter="url(#filter1_f_1_1714)">
<path d="M576 360C576 315.817 611.817 280 656 280H1456C1500.18 280 1536 315.817 1536 360C1536 404.183 1500.18 440 1456 440H656C611.817 440 576 404.183 576 360Z" fill="url(#paint0_linear_1_1714)"/>
</g>
<g filter="url(#filter2_f_1_1714)">
<path d="M96 200C96 155.817 131.817 120 176 120H1456C1500.18 120 1536 155.817 1536 200C1536 244.183 1500.18 280 1456 280H176C131.817 280 96 244.183 96 200Z" fill="url(#paint1_linear_1_1714)"/>
</g>
<g filter="url(#filter3_f_1_1714)">
<path d="M576 40C576 -4.18278 611.817 -40 656 -40H1456C1500.18 -40 1536 -4.18278 1536 40C1536 84.1828 1500.18 120 1456 120H656C611.817 120 576 84.1828 576 40Z" fill="url(#paint2_linear_1_1714)"/>
</g>
</g>
<defs>
<filter id="filter0_f_1_1714" x="72" y="-64" width="1488" height="528" filterUnits="userSpaceOnUse" color-interpolation-filters="sRGB">
<feFlood flood-opacity="0" result="BackgroundImageFix"/>
<feBlend mode="normal" in="SourceGraphic" in2="BackgroundImageFix" result="shape"/>
<feGaussianBlur stdDeviation="12" result="effect1_foregroundBlur_1_1714"/>
</filter>
<filter id="filter1_f_1_1714" x="480" y="184" width="1152" height="352" filterUnits="userSpaceOnUse" color-interpolation-filters="sRGB">
<feFlood flood-opacity="0" result="BackgroundImageFix"/>
<feBlend mode="normal" in="SourceGraphic" in2="BackgroundImageFix" result="shape"/>
<feGaussianBlur stdDeviation="48" result="effect1_foregroundBlur_1_1714"/>
</filter>
<filter id="filter2_f_1_1714" x="0" y="24" width="1632" height="352" filterUnits="userSpaceOnUse" color-interpolation-filters="sRGB">
<feFlood flood-opacity="0" result="BackgroundImageFix"/>
<feBlend mode="normal" in="SourceGraphic" in2="BackgroundImageFix" result="shape"/>
<feGaussianBlur stdDeviation="48" result="effect1_foregroundBlur_1_1714"/>
</filter>
<filter id="filter3_f_1_1714" x="480" y="-136" width="1152" height="352" filterUnits="userSpaceOnUse" color-interpolation-filters="sRGB">
<feFlood flood-opacity="0" result="BackgroundImageFix"/>
<feBlend mode="normal" in="SourceGraphic" in2="BackgroundImageFix" result="shape"/>
<feGaussianBlur stdDeviation="48" result="effect1_foregroundBlur_1_1714"/>
</filter>
<linearGradient id="paint0_linear_1_1714" x1="1056" y1="280" x2="1056" y2="440" gradientUnits="userSpaceOnUse">
<stop stop-color="#D08700"/>
<stop offset="1" stop-color="#00A6F4"/>
</linearGradient>
<linearGradient id="paint1_linear_1_1714" x1="816" y1="120" x2="816" y2="280" gradientUnits="userSpaceOnUse">
<stop stop-color="#861043"/>
<stop offset="1" stop-color="#FDC700"/>
</linearGradient>
<linearGradient id="paint2_linear_1_1714" x1="1056" y1="-40" x2="1056" y2="120" gradientUnits="userSpaceOnUse">
<stop stop-color="#9810FA"/>
<stop offset="1" stop-color="#0084D1"/>
</linearGradient>
</defs>
</svg>
